<svg width="17" height="17" viewBox="0 0 22 22" fill="none" xmlns="http://www.w3.org/2000/svg">
<path fill-rule="evenodd" clip-rule="evenodd" d="M9.9 0C15.3676 0 19.8 4.43238 19.8 9.9C19.8 12.2373 18.9901 14.3853 17.6355 16.0789L21.6778 20.1222C22.1074 20.5518 22.1074 21.2482 21.6778 21.6778C21.2813 22.0744 20.6573 22.1049 20.2258 21.7693L20.1222 21.6778L16.0789 17.6355C14.3853 18.9901 12.2373 19.8 9.9 19.8C4.43238 19.8 0 15.3676 0 9.9C0 4.43238 4.43238 0 9.9 0V0ZM9.9 2.2C5.64741 2.2 2.2 5.64741 2.2 9.9C2.2 14.1526 5.64741 17.6 9.9 17.6C14.1526 17.6 17.6 14.1526 17.6 9.9C17.6 5.64741 14.1526 2.2 9.9 2.2Z" fill="white"/>
</svg>
